
    <svg xmlns="http://www.w3.org/2000/svg" viewBox="0 0 220 220" width="100%" height="100%" style="border-radius: 1.5rem; background-color: #f1f8e9;">
      <defs>
        <!-- Box Shadow -->
        <filter id="pack-shadow" x="-10%" y="-10%" width="120%" height="120%">
          <feDropShadow dx="0" dy="8" stdDeviation="6" flood-color="rgba(46, 125, 50, 0.25)" flood-opacity="0.8"/>
        </filter>
        
        <!-- Plastic reflection highlights -->
        <linearGradient id="highlight" x1="0%" y1="0%" x2="100%" y2="100%">
          <stop offset="0%" stop-color="white" stop-opacity="0.4"/>
          <stop offset="30%" stop-color="white" stop-opacity="0.1"/>
          <stop offset="70%" stop-color="black" stop-opacity="0.0"/>
          <stop offset="100%" stop-color="white" stop-opacity="0.15"/>
        </linearGradient>

        <linearGradient id="brand-grad" x1="0%" y1="0%" x2="100%" y2="0%">
          <stop offset="0%" stop-color="#ffd54f"/>
          <stop offset="100%" stop-color="#ffb300"/>
        </linearGradient>
      </defs>

      <!-- Background studio shadow -->
      <radialGradient id="studio-bg" cx="50%" cy="80%" r="60%" fx="50%" fy="80%">
        <stop offset="0%" stop-color="rgba(0,0,0,0.06)"/>
        <stop offset="100%" stop-color="rgba(0,0,0,0)"/>
      </radialGradient>
      <rect x="0" y="0" width="220" height="220" fill="url(#studio-bg)"/>

      <!-- 3D PACKAGE STAND-UP POUCH / BOX DESIGN -->
      <g filter="url(#pack-shadow)">
        <!-- Pouch Main Body -->
        <path d="M45,28 L175,28 Q185,28 180,45 L165,180 Q160,192 110,192 Q60,192 55,180 L35,45 Q30,28 45,28 Z" fill="linear-gradient(135deg, #2e7d32 0%, #76ff03 100%)"/>

        <!-- 3D Pouch Side Flaps for visual depth -->
        <path d="M35,45 L50,45 L40,180 L35,45 Z" fill="rgba(0,0,0,0.1)"/>
        <path d="M185,45 L170,45 L180,180 L185,45 Z" fill="rgba(255,255,255,0.08)"/>

        <!-- Top Pouch Seal / Flange -->
        <path d="M42,22 L178,22 Q183,22 181,28 L39,28 Q37,22 42,22 Z" fill="rgba(0,0,0,0.15)"/>
        
        <!-- Pouch Bottom fold -->
        <path d="M55,180 Q110,192 165,180 Q160,194 110,194 Q60,194 55,180 Z" fill="rgba(0,0,0,0.2)"/>
      </g>

      <!-- Category specific geometric patterns -->
      <g>
        <circle cx="110" cy="110" r="80" fill="none" stroke="rgba(255,255,255,0.04)" stroke-width="4"/>
      </g>

      <!-- FRONT LABEL PANEL -->
      <g transform="translate(10, 0)">
        <!-- Brand Header Bar -->
        <rect x="65" y="45" width="70" height="15" rx="3" fill="#ffffff" opacity="0.95"/>
        <text x="100" y="56" font-family="'Inter', sans-serif" font-weight="900" font-size="8.5" fill="#333" text-anchor="middle" letter-spacing="1">
          ADISHA
        </text>

        <!-- Dynamic Category Vector Icon -->
        <g transform="translate(88, 70) scale(1.0)">
          
        <path d="M12 22V10" stroke="#a7ffeb" stroke-width="3" stroke-linecap="round"/>
        <path d="M12 10c0 0-4-1-4-4s3-3 4-1c1-2 4-2 4 1s-4 4-4 4z" fill="#ccff90"/>
        <path d="M12 14c0 0-3-1-3-3s2-2 3-1c1-1 3-1 3 1s-3 3-3 3z" fill="#b2ff59"/>
      
        </g>

        <!-- Product Display Title (Elegant Wrap or scale) -->
        <text x="100" y="132" font-family="'Outfit', 'Inter', sans-serif" font-weight="900" font-size="8.5" fill="#ffffff" text-anchor="middle" letter-spacing="0.2">
          Special Sandal Ubtan
        </text>

        <!-- Premium Quality Badge -->
        <g transform="translate(100, 148)">
          <rect x="-35" y="-6" width="70" height="10" rx="5" fill="rgba(255,255,255,0.15)"/>
          <text x="0" y="2" font-family="'Inter', sans-serif" font-weight="800" font-size="5.5" fill="#ccff90" text-anchor="middle" letter-spacing="0.5">
            AUTHENTIC PRODUCT
          </text>
        </g>
        
        <!-- Weight badge at the bottom -->
        
          <g transform="translate(100, 168)">
            <rect x="-18" y="-6" width="36" height="11" rx="4" fill="url(#brand-grad)"/>
            <text x="0" y="2.5" font-family="'Inter', sans-serif" font-weight="900" font-size="6.5" fill="#111" text-anchor="middle">
              20G
            </text>
          </g>
        
      </g>

      <!-- Plastic foil gloss overlay for realism -->
      <path d="M45,28 L175,28 Q185,28 180,45 L165,180 Q160,192 110,192 Q60,192 55,180 L35,45 Q30,28 45,28 Z" fill="url(#highlight)" pointer-events="none"/>
    </svg>
  